<mxfile host="app.diagrams.net" modified="2021-09-23T11:42:50.463Z" agent="5.0 (X11; Linux x86_64) AppleWebKit/537.36 (KHTML, like Gecko) Chrome/93.0.4577.82 Safari/537.36" etag="mgJUBvKf0mYJ6-evnHsY" version="15.2.9" type="github" pages="5">
  <diagram id="X-JS9oo7KRQ4lRcFdU6s" name="DER-01">
    <mxGraphModel dx="1342" dy="626" grid="1" gridSize="10" guides="1" tooltips="1" connect="1" arrows="1" fold="1" page="1" pageScale="1" pageWidth="850" pageHeight="1100" math="0" shadow="0">
      <root>
        <mxCell id="3oEOwaEBaQORoEQFyr-n-0" />
        <mxCell id="3oEOwaEBaQORoEQFyr-n-1" parent="3oEOwaEBaQORoEQFyr-n-0" />
        <mxCell id="3oEOwaEBaQORoEQFyr-n-3" value="“Um &lt;u&gt;professor&lt;/u&gt; é lotado num &lt;u&gt;departamento&lt;/u&gt;”&lt;br/&gt;&lt;br&gt;“Um exame gera um diagnóstico”&lt;br/&gt;&lt;br&gt;“Um cliente possui conta bancária”" style="text;whiteSpace=wrap;html=1;" parent="3oEOwaEBaQORoEQFyr-n-1" vertex="1">
          <mxGeometry x="250" y="170" width="260" height="60" as="geometry" />
        </mxCell>
        <mxCell id="3oEOwaEBaQORoEQFyr-n-6" value="DIAGRAMA ENTIDADE-RELACIONAMENTO (DER)" style="text;html=1;strokeColor=none;fillColor=none;align=center;verticalAlign=middle;whiteSpace=wrap;rounded=0;" parent="3oEOwaEBaQORoEQFyr-n-1" vertex="1">
          <mxGeometry x="240" y="260" width="440" height="20" as="geometry" />
        </mxCell>
        <mxCell id="3oEOwaEBaQORoEQFyr-n-8" value="Professor" style="whiteSpace=wrap;html=1;align=center;" parent="3oEOwaEBaQORoEQFyr-n-1" vertex="1">
          <mxGeometry x="250" y="340" width="100" height="40" as="geometry" />
        </mxCell>
        <mxCell id="3oEOwaEBaQORoEQFyr-n-9" value="Departamento" style="whiteSpace=wrap;html=1;align=center;" parent="3oEOwaEBaQORoEQFyr-n-1" vertex="1">
          <mxGeometry x="620" y="340" width="100" height="40" as="geometry" />
        </mxCell>
        <mxCell id="3oEOwaEBaQORoEQFyr-n-10" value="Lotação" style="shape=rhombus;double=1;perimeter=rhombusPerimeter;whiteSpace=wrap;html=1;align=center;" parent="3oEOwaEBaQORoEQFyr-n-1" vertex="1">
          <mxGeometry x="440" y="330" width="120" height="60" as="geometry" />
        </mxCell>
        <mxCell id="3oEOwaEBaQORoEQFyr-n-11" value="" style="endArrow=none;html=1;rounded=0;" parent="3oEOwaEBaQORoEQFyr-n-1" edge="1">
          <mxGeometry relative="1" as="geometry">
            <mxPoint x="350" y="360" as="sourcePoint" />
            <mxPoint x="440" y="360" as="targetPoint" />
          </mxGeometry>
        </mxCell>
        <mxCell id="3oEOwaEBaQORoEQFyr-n-12" value="" style="endArrow=none;html=1;rounded=0;" parent="3oEOwaEBaQORoEQFyr-n-1" edge="1">
          <mxGeometry relative="1" as="geometry">
            <mxPoint x="560" y="359.71" as="sourcePoint" />
            <mxPoint x="620" y="360" as="targetPoint" />
          </mxGeometry>
        </mxCell>
        <mxCell id="3oEOwaEBaQORoEQFyr-n-13" value="“Um &lt;u&gt;exame&lt;/u&gt; gera um &lt;u&gt;diagnóstico&lt;/u&gt;”&lt;br&gt;&lt;br&gt;&lt;br&gt;&lt;br&gt;" style="text;whiteSpace=wrap;html=1;" parent="3oEOwaEBaQORoEQFyr-n-1" vertex="1">
          <mxGeometry x="260" y="410" width="260" height="60" as="geometry" />
        </mxCell>
        <mxCell id="3oEOwaEBaQORoEQFyr-n-14" value="Exame" style="whiteSpace=wrap;html=1;align=center;" parent="3oEOwaEBaQORoEQFyr-n-1" vertex="1">
          <mxGeometry x="250" y="500" width="100" height="40" as="geometry" />
        </mxCell>
        <mxCell id="3oEOwaEBaQORoEQFyr-n-15" value="Diagnóstico" style="whiteSpace=wrap;html=1;align=center;" parent="3oEOwaEBaQORoEQFyr-n-1" vertex="1">
          <mxGeometry x="620" y="500" width="100" height="40" as="geometry" />
        </mxCell>
        <mxCell id="3oEOwaEBaQORoEQFyr-n-16" value="Gera" style="shape=rhombus;double=1;perimeter=rhombusPerimeter;whiteSpace=wrap;html=1;align=center;" parent="3oEOwaEBaQORoEQFyr-n-1" vertex="1">
          <mxGeometry x="440" y="490" width="120" height="60" as="geometry" />
        </mxCell>
        <mxCell id="3oEOwaEBaQORoEQFyr-n-17" value="" style="endArrow=none;html=1;rounded=0;" parent="3oEOwaEBaQORoEQFyr-n-1" edge="1">
          <mxGeometry relative="1" as="geometry">
            <mxPoint x="350" y="520" as="sourcePoint" />
            <mxPoint x="440" y="520" as="targetPoint" />
          </mxGeometry>
        </mxCell>
        <mxCell id="3oEOwaEBaQORoEQFyr-n-18" value="" style="endArrow=none;html=1;rounded=0;" parent="3oEOwaEBaQORoEQFyr-n-1" edge="1">
          <mxGeometry relative="1" as="geometry">
            <mxPoint x="560" y="519.71" as="sourcePoint" />
            <mxPoint x="620" y="520" as="targetPoint" />
          </mxGeometry>
        </mxCell>
        <mxCell id="3oEOwaEBaQORoEQFyr-n-19" value="Cliente&lt;span style=&quot;white-space: pre&quot;&gt; &lt;/span&gt;" style="whiteSpace=wrap;html=1;align=center;" parent="3oEOwaEBaQORoEQFyr-n-1" vertex="1">
          <mxGeometry x="250" y="650" width="100" height="40" as="geometry" />
        </mxCell>
        <mxCell id="3oEOwaEBaQORoEQFyr-n-20" value="Conta" style="whiteSpace=wrap;html=1;align=center;" parent="3oEOwaEBaQORoEQFyr-n-1" vertex="1">
          <mxGeometry x="620" y="650" width="100" height="40" as="geometry" />
        </mxCell>
        <mxCell id="3oEOwaEBaQORoEQFyr-n-21" value="Possui&lt;span style=&quot;white-space: pre&quot;&gt; &lt;/span&gt;" style="shape=rhombus;double=1;perimeter=rhombusPerimeter;whiteSpace=wrap;html=1;align=center;" parent="3oEOwaEBaQORoEQFyr-n-1" vertex="1">
          <mxGeometry x="440" y="640" width="120" height="60" as="geometry" />
        </mxCell>
        <mxCell id="3oEOwaEBaQORoEQFyr-n-22" value="" style="endArrow=none;html=1;rounded=0;" parent="3oEOwaEBaQORoEQFyr-n-1" edge="1">
          <mxGeometry relative="1" as="geometry">
            <mxPoint x="350" y="670" as="sourcePoint" />
            <mxPoint x="440" y="670" as="targetPoint" />
          </mxGeometry>
        </mxCell>
        <mxCell id="3oEOwaEBaQORoEQFyr-n-23" value="" style="endArrow=none;html=1;rounded=0;" parent="3oEOwaEBaQORoEQFyr-n-1" edge="1">
          <mxGeometry relative="1" as="geometry">
            <mxPoint x="560" y="669.71" as="sourcePoint" />
            <mxPoint x="620" y="670" as="targetPoint" />
          </mxGeometry>
        </mxCell>
        <mxCell id="3oEOwaEBaQORoEQFyr-n-25" value="Funcionario" style="whiteSpace=wrap;html=1;align=center;" parent="3oEOwaEBaQORoEQFyr-n-1" vertex="1">
          <mxGeometry x="260" y="860" width="100" height="40" as="geometry" />
        </mxCell>
        <mxCell id="3oEOwaEBaQORoEQFyr-n-26" value="Funcionario" style="whiteSpace=wrap;html=1;align=center;" parent="3oEOwaEBaQORoEQFyr-n-1" vertex="1">
          <mxGeometry x="630" y="860" width="100" height="40" as="geometry" />
        </mxCell>
        <mxCell id="3oEOwaEBaQORoEQFyr-n-27" value="Supervisiona" style="shape=rhombus;double=1;perimeter=rhombusPerimeter;whiteSpace=wrap;html=1;align=center;" parent="3oEOwaEBaQORoEQFyr-n-1" vertex="1">
          <mxGeometry x="450" y="850" width="120" height="60" as="geometry" />
        </mxCell>
        <mxCell id="3oEOwaEBaQORoEQFyr-n-28" value="" style="endArrow=none;html=1;rounded=0;" parent="3oEOwaEBaQORoEQFyr-n-1" edge="1">
          <mxGeometry relative="1" as="geometry">
            <mxPoint x="360" y="880" as="sourcePoint" />
            <mxPoint x="450" y="880" as="targetPoint" />
          </mxGeometry>
        </mxCell>
        <mxCell id="3oEOwaEBaQORoEQFyr-n-29" value="" style="endArrow=none;html=1;rounded=0;" parent="3oEOwaEBaQORoEQFyr-n-1" edge="1">
          <mxGeometry relative="1" as="geometry">
            <mxPoint x="570" y="879.71" as="sourcePoint" />
            <mxPoint x="630" y="880" as="targetPoint" />
          </mxGeometry>
        </mxCell>
        <mxCell id="3oEOwaEBaQORoEQFyr-n-30" value="AUTO RELACIONAMENTO" style="text;html=1;strokeColor=none;fillColor=none;align=center;verticalAlign=middle;whiteSpace=wrap;rounded=0;" parent="3oEOwaEBaQORoEQFyr-n-1" vertex="1">
          <mxGeometry x="390" y="780" width="280" height="20" as="geometry" />
        </mxCell>
        <mxCell id="3oEOwaEBaQORoEQFyr-n-32" value="1" style="text;html=1;strokeColor=none;fillColor=none;align=center;verticalAlign=middle;whiteSpace=wrap;rounded=0;" parent="3oEOwaEBaQORoEQFyr-n-1" vertex="1">
          <mxGeometry x="370" y="860" width="40" height="20" as="geometry" />
        </mxCell>
        <mxCell id="3oEOwaEBaQORoEQFyr-n-33" value="N" style="text;html=1;strokeColor=none;fillColor=none;align=center;verticalAlign=middle;whiteSpace=wrap;rounded=0;" parent="3oEOwaEBaQORoEQFyr-n-1" vertex="1">
          <mxGeometry x="590" y="860" width="40" height="20" as="geometry" />
        </mxCell>
      </root>
    </mxGraphModel>
  </diagram>
  <diagram id="SKc2BmhcpeyG9A7RYopY" name="DER-02">
    <mxGraphModel dx="1342" dy="626" grid="1" gridSize="10" guides="1" tooltips="1" connect="1" arrows="1" fold="1" page="1" pageScale="1" pageWidth="850" pageHeight="1100" math="0" shadow="0">
      <root>
        <mxCell id="cvbZ9szHHdb0fuQo2xFD-0" />
        <mxCell id="cvbZ9szHHdb0fuQo2xFD-1" parent="cvbZ9szHHdb0fuQo2xFD-0" />
        <mxCell id="cvbZ9szHHdb0fuQo2xFD-2" value="“Todo &lt;u&gt;professor &lt;/u&gt;deve estar lotado em um &lt;u&gt;departamento&lt;/u&gt;”&lt;br/&gt;&lt;br&gt;“Todo exame gera um laudo”&lt;br/&gt;&lt;br&gt;“Toda multa deve estar associada a um carro”&lt;br/&gt;&lt;br&gt;“Existe carro sem multa associada”&lt;br/&gt;&lt;br&gt;“Toda Nota Fiscal deve ter pelo menos um item discriminado”" style="text;whiteSpace=wrap;html=1;" parent="cvbZ9szHHdb0fuQo2xFD-1" vertex="1">
          <mxGeometry x="125" y="60" width="620" height="110" as="geometry" />
        </mxCell>
        <mxCell id="_RoRwAvxPujA2v6jaBQm-0" value="Professor" style="whiteSpace=wrap;html=1;align=center;" parent="cvbZ9szHHdb0fuQo2xFD-1" vertex="1">
          <mxGeometry x="70" y="220" width="100" height="40" as="geometry" />
        </mxCell>
        <mxCell id="_RoRwAvxPujA2v6jaBQm-1" value="Departamento" style="whiteSpace=wrap;html=1;align=center;" parent="cvbZ9szHHdb0fuQo2xFD-1" vertex="1">
          <mxGeometry x="440" y="220" width="100" height="40" as="geometry" />
        </mxCell>
        <mxCell id="_RoRwAvxPujA2v6jaBQm-2" value="Lotado" style="shape=rhombus;double=1;perimeter=rhombusPerimeter;whiteSpace=wrap;html=1;align=center;" parent="cvbZ9szHHdb0fuQo2xFD-1" vertex="1">
          <mxGeometry x="260" y="210" width="120" height="60" as="geometry" />
        </mxCell>
        <mxCell id="_RoRwAvxPujA2v6jaBQm-3" value="" style="endArrow=none;html=1;rounded=0;" parent="cvbZ9szHHdb0fuQo2xFD-1" edge="1">
          <mxGeometry relative="1" as="geometry">
            <mxPoint x="170" y="240" as="sourcePoint" />
            <mxPoint x="260" y="240" as="targetPoint" />
          </mxGeometry>
        </mxCell>
        <mxCell id="_RoRwAvxPujA2v6jaBQm-4" value="" style="endArrow=none;html=1;rounded=0;" parent="cvbZ9szHHdb0fuQo2xFD-1" edge="1">
          <mxGeometry relative="1" as="geometry">
            <mxPoint x="380" y="239.71000000000026" as="sourcePoint" />
            <mxPoint x="440" y="240" as="targetPoint" />
          </mxGeometry>
        </mxCell>
        <mxCell id="_RoRwAvxPujA2v6jaBQm-5" value="(1, N)" style="text;html=1;strokeColor=none;fillColor=none;align=center;verticalAlign=middle;whiteSpace=wrap;rounded=0;" parent="cvbZ9szHHdb0fuQo2xFD-1" vertex="1">
          <mxGeometry x="180" y="220" width="40" height="20" as="geometry" />
        </mxCell>
        <mxCell id="_RoRwAvxPujA2v6jaBQm-6" value="(1,1)" style="text;html=1;strokeColor=none;fillColor=none;align=center;verticalAlign=middle;whiteSpace=wrap;rounded=0;" parent="cvbZ9szHHdb0fuQo2xFD-1" vertex="1">
          <mxGeometry x="400" y="220" width="40" height="20" as="geometry" />
        </mxCell>
        <mxCell id="ez120fp0GcOUs8x1wjCr-0" value="Cardinalidade" style="text;html=1;strokeColor=none;fillColor=none;align=center;verticalAlign=middle;whiteSpace=wrap;rounded=0;" parent="cvbZ9szHHdb0fuQo2xFD-1" vertex="1">
          <mxGeometry x="190" y="190" width="40" height="20" as="geometry" />
        </mxCell>
        <mxCell id="ez120fp0GcOUs8x1wjCr-1" value="(Mínimo, Máximo)" style="text;html=1;strokeColor=none;fillColor=none;align=center;verticalAlign=middle;whiteSpace=wrap;rounded=0;" parent="cvbZ9szHHdb0fuQo2xFD-1" vertex="1">
          <mxGeometry x="360" y="190" width="150" height="20" as="geometry" />
        </mxCell>
        <mxCell id="ez120fp0GcOUs8x1wjCr-2" value="“Todo &lt;u&gt;exame&lt;/u&gt; gera um &lt;u&gt;laudo&lt;/u&gt;”&lt;br&gt;" style="text;whiteSpace=wrap;html=1;" parent="cvbZ9szHHdb0fuQo2xFD-1" vertex="1">
          <mxGeometry x="90" y="290" width="620" height="30" as="geometry" />
        </mxCell>
        <mxCell id="ez120fp0GcOUs8x1wjCr-3" value="“Toda &lt;u&gt;multa&lt;/u&gt; deve estar associada a um &lt;u&gt;carro&lt;/u&gt;”&lt;br&gt;&lt;br&gt;“Existe &lt;u&gt;carro&lt;/u&gt; sem multa &lt;u&gt;associada&lt;/u&gt;”" style="text;whiteSpace=wrap;html=1;" parent="cvbZ9szHHdb0fuQo2xFD-1" vertex="1">
          <mxGeometry x="80" y="430" width="620" height="60" as="geometry" />
        </mxCell>
        <mxCell id="ez120fp0GcOUs8x1wjCr-4" value="Exame" style="whiteSpace=wrap;html=1;align=center;" parent="cvbZ9szHHdb0fuQo2xFD-1" vertex="1">
          <mxGeometry x="80" y="350" width="100" height="40" as="geometry" />
        </mxCell>
        <mxCell id="ez120fp0GcOUs8x1wjCr-5" value="Laudo" style="whiteSpace=wrap;html=1;align=center;" parent="cvbZ9szHHdb0fuQo2xFD-1" vertex="1">
          <mxGeometry x="440" y="350" width="100" height="40" as="geometry" />
        </mxCell>
        <mxCell id="ez120fp0GcOUs8x1wjCr-6" value="Gera" style="shape=rhombus;double=1;perimeter=rhombusPerimeter;whiteSpace=wrap;html=1;align=center;" parent="cvbZ9szHHdb0fuQo2xFD-1" vertex="1">
          <mxGeometry x="280" y="340" width="120" height="60" as="geometry" />
        </mxCell>
        <mxCell id="ez120fp0GcOUs8x1wjCr-7" value="" style="endArrow=none;html=1;rounded=0;" parent="cvbZ9szHHdb0fuQo2xFD-1" edge="1">
          <mxGeometry relative="1" as="geometry">
            <mxPoint x="180" y="370" as="sourcePoint" />
            <mxPoint x="280" y="370" as="targetPoint" />
          </mxGeometry>
        </mxCell>
        <mxCell id="ez120fp0GcOUs8x1wjCr-8" value="" style="endArrow=none;html=1;rounded=0;" parent="cvbZ9szHHdb0fuQo2xFD-1" edge="1">
          <mxGeometry relative="1" as="geometry">
            <mxPoint x="400" y="370" as="sourcePoint" />
            <mxPoint x="440" y="370" as="targetPoint" />
          </mxGeometry>
        </mxCell>
        <mxCell id="ez120fp0GcOUs8x1wjCr-9" value="(1,1)" style="text;html=1;strokeColor=none;fillColor=none;align=center;verticalAlign=middle;whiteSpace=wrap;rounded=0;" parent="cvbZ9szHHdb0fuQo2xFD-1" vertex="1">
          <mxGeometry x="405" y="350" width="40" height="20" as="geometry" />
        </mxCell>
        <mxCell id="ez120fp0GcOUs8x1wjCr-10" value="(1,N)" style="text;html=1;strokeColor=none;fillColor=none;align=center;verticalAlign=middle;whiteSpace=wrap;rounded=0;" parent="cvbZ9szHHdb0fuQo2xFD-1" vertex="1">
          <mxGeometry x="200" y="350" width="40" height="20" as="geometry" />
        </mxCell>
        <mxCell id="ez120fp0GcOUs8x1wjCr-11" value="Multa" style="whiteSpace=wrap;html=1;align=center;" parent="cvbZ9szHHdb0fuQo2xFD-1" vertex="1">
          <mxGeometry x="80" y="520" width="100" height="40" as="geometry" />
        </mxCell>
        <mxCell id="ez120fp0GcOUs8x1wjCr-12" value="Carro" style="whiteSpace=wrap;html=1;align=center;" parent="cvbZ9szHHdb0fuQo2xFD-1" vertex="1">
          <mxGeometry x="450" y="520" width="100" height="40" as="geometry" />
        </mxCell>
        <mxCell id="ez120fp0GcOUs8x1wjCr-13" value="associada" style="shape=rhombus;double=1;perimeter=rhombusPerimeter;whiteSpace=wrap;html=1;align=center;" parent="cvbZ9szHHdb0fuQo2xFD-1" vertex="1">
          <mxGeometry x="260" y="510" width="120" height="60" as="geometry" />
        </mxCell>
        <mxCell id="ez120fp0GcOUs8x1wjCr-14" value="" style="endArrow=none;html=1;rounded=0;entryX=0;entryY=0.5;entryDx=0;entryDy=0;" parent="cvbZ9szHHdb0fuQo2xFD-1" target="ez120fp0GcOUs8x1wjCr-13" edge="1">
          <mxGeometry relative="1" as="geometry">
            <mxPoint x="180" y="540" as="sourcePoint" />
            <mxPoint x="340" y="540" as="targetPoint" />
          </mxGeometry>
        </mxCell>
        <mxCell id="ez120fp0GcOUs8x1wjCr-15" value="" style="endArrow=none;html=1;rounded=0;entryX=0;entryY=0.5;entryDx=0;entryDy=0;" parent="cvbZ9szHHdb0fuQo2xFD-1" target="ez120fp0GcOUs8x1wjCr-12" edge="1">
          <mxGeometry relative="1" as="geometry">
            <mxPoint x="380" y="540" as="sourcePoint" />
            <mxPoint x="540" y="540" as="targetPoint" />
          </mxGeometry>
        </mxCell>
        <mxCell id="ez120fp0GcOUs8x1wjCr-16" value="(0,N)" style="text;html=1;strokeColor=none;fillColor=none;align=center;verticalAlign=middle;whiteSpace=wrap;rounded=0;" parent="cvbZ9szHHdb0fuQo2xFD-1" vertex="1">
          <mxGeometry x="190" y="520" width="40" height="20" as="geometry" />
        </mxCell>
        <mxCell id="ez120fp0GcOUs8x1wjCr-17" value="(1,1)" style="text;html=1;strokeColor=none;fillColor=none;align=center;verticalAlign=middle;whiteSpace=wrap;rounded=0;" parent="cvbZ9szHHdb0fuQo2xFD-1" vertex="1">
          <mxGeometry x="405" y="520" width="40" height="20" as="geometry" />
        </mxCell>
        <mxCell id="ez120fp0GcOUs8x1wjCr-18" value="" style="edgeStyle=entityRelationEdgeStyle;fontSize=12;html=1;endArrow=ERmandOne;startArrow=ERmandOne;" parent="cvbZ9szHHdb0fuQo2xFD-1" edge="1">
          <mxGeometry width="100" height="100" relative="1" as="geometry">
            <mxPoint x="170" y="740" as="sourcePoint" />
            <mxPoint x="270" y="640" as="targetPoint" />
          </mxGeometry>
        </mxCell>
        <mxCell id="ez120fp0GcOUs8x1wjCr-19" value="" style="edgeStyle=entityRelationEdgeStyle;fontSize=12;html=1;endArrow=ERzeroToOne;endFill=1;" parent="cvbZ9szHHdb0fuQo2xFD-1" edge="1">
          <mxGeometry width="100" height="100" relative="1" as="geometry">
            <mxPoint x="70" y="730" as="sourcePoint" />
            <mxPoint x="170" y="630" as="targetPoint" />
          </mxGeometry>
        </mxCell>
        <mxCell id="ez120fp0GcOUs8x1wjCr-20" value="(0,1)" style="text;strokeColor=none;fillColor=none;spacingLeft=4;spacingRight=4;overflow=hidden;rotatable=0;points=[[0,0.5],[1,0.5]];portConstraint=eastwest;fontSize=12;" parent="cvbZ9szHHdb0fuQo2xFD-1" vertex="1">
          <mxGeometry x="150" y="600" width="40" height="30" as="geometry" />
        </mxCell>
        <mxCell id="ez120fp0GcOUs8x1wjCr-21" value="(1,1)" style="text;strokeColor=none;fillColor=none;spacingLeft=4;spacingRight=4;overflow=hidden;rotatable=0;points=[[0,0.5],[1,0.5]];portConstraint=eastwest;fontSize=12;" parent="cvbZ9szHHdb0fuQo2xFD-1" vertex="1">
          <mxGeometry x="250" y="610" width="40" height="30" as="geometry" />
        </mxCell>
        <mxCell id="ez120fp0GcOUs8x1wjCr-23" value="" style="edgeStyle=entityRelationEdgeStyle;fontSize=12;html=1;endArrow=ERoneToMany;startArrow=ERmandOne;" parent="cvbZ9szHHdb0fuQo2xFD-1" edge="1">
          <mxGeometry width="100" height="100" relative="1" as="geometry">
            <mxPoint x="300" y="740" as="sourcePoint" />
            <mxPoint x="400" y="640" as="targetPoint" />
          </mxGeometry>
        </mxCell>
        <mxCell id="ez120fp0GcOUs8x1wjCr-24" value="(1,1)" style="text;strokeColor=none;fillColor=none;spacingLeft=4;spacingRight=4;overflow=hidden;rotatable=0;points=[[0,0.5],[1,0.5]];portConstraint=eastwest;fontSize=12;" parent="cvbZ9szHHdb0fuQo2xFD-1" vertex="1">
          <mxGeometry x="280" y="700" width="40" height="30" as="geometry" />
        </mxCell>
        <mxCell id="ez120fp0GcOUs8x1wjCr-25" value="(1,N)" style="text;strokeColor=none;fillColor=none;spacingLeft=4;spacingRight=4;overflow=hidden;rotatable=0;points=[[0,0.5],[1,0.5]];portConstraint=eastwest;fontSize=12;" parent="cvbZ9szHHdb0fuQo2xFD-1" vertex="1">
          <mxGeometry x="380" y="610" width="40" height="30" as="geometry" />
        </mxCell>
        <mxCell id="ez120fp0GcOUs8x1wjCr-26" value="Multa" style="whiteSpace=wrap;html=1;align=center;" parent="cvbZ9szHHdb0fuQo2xFD-1" vertex="1">
          <mxGeometry x="90" y="810" width="100" height="40" as="geometry" />
        </mxCell>
        <mxCell id="ez120fp0GcOUs8x1wjCr-27" value="Carro" style="whiteSpace=wrap;html=1;align=center;" parent="cvbZ9szHHdb0fuQo2xFD-1" vertex="1">
          <mxGeometry x="360" y="800" width="100" height="40" as="geometry" />
        </mxCell>
        <mxCell id="ez120fp0GcOUs8x1wjCr-28" value="" style="edgeStyle=entityRelationEdgeStyle;fontSize=12;html=1;endArrow=ERoneToMany;startArrow=ERzeroToOne;entryX=0;entryY=0.5;entryDx=0;entryDy=0;exitX=1.03;exitY=0.5;exitDx=0;exitDy=0;exitPerimeter=0;" parent="cvbZ9szHHdb0fuQo2xFD-1" source="ez120fp0GcOUs8x1wjCr-26" target="ez120fp0GcOUs8x1wjCr-27" edge="1">
          <mxGeometry width="100" height="100" relative="1" as="geometry">
            <mxPoint x="190" y="920" as="sourcePoint" />
            <mxPoint x="290" y="820" as="targetPoint" />
          </mxGeometry>
        </mxCell>
        <mxCell id="ez120fp0GcOUs8x1wjCr-29" value="Associada" style="text;strokeColor=none;fillColor=none;spacingLeft=4;spacingRight=4;overflow=hidden;rotatable=0;points=[[0,0.5],[1,0.5]];portConstraint=eastwest;fontSize=12;" parent="cvbZ9szHHdb0fuQo2xFD-1" vertex="1">
          <mxGeometry x="250" y="790" width="70" height="20" as="geometry" />
        </mxCell>
        <mxCell id="ez120fp0GcOUs8x1wjCr-30" value="Multa" style="shape=table;startSize=30;container=1;collapsible=1;childLayout=tableLayout;fixedRows=1;rowLines=0;fontStyle=1;align=center;resizeLast=1;" parent="cvbZ9szHHdb0fuQo2xFD-1" vertex="1">
          <mxGeometry x="70" y="900" width="180" height="160" as="geometry" />
        </mxCell>
        <mxCell id="ez120fp0GcOUs8x1wjCr-31" value="" style="shape=partialRectangle;collapsible=0;dropTarget=0;pointerEvents=0;fillColor=none;top=0;left=0;bottom=1;right=0;points=[[0,0.5],[1,0.5]];portConstraint=eastwest;" parent="ez120fp0GcOUs8x1wjCr-30" vertex="1">
          <mxGeometry y="30" width="180" height="30" as="geometry" />
        </mxCell>
        <mxCell id="ez120fp0GcOUs8x1wjCr-32" value="PK" style="shape=partialRectangle;connectable=0;fillColor=none;top=0;left=0;bottom=0;right=0;fontStyle=1;overflow=hidden;" parent="ez120fp0GcOUs8x1wjCr-31" vertex="1">
          <mxGeometry width="30" height="30" as="geometry" />
        </mxCell>
        <mxCell id="ez120fp0GcOUs8x1wjCr-33" value="Codigo" style="shape=partialRectangle;connectable=0;fillColor=none;top=0;left=0;bottom=0;right=0;align=left;spacingLeft=6;fontStyle=5;overflow=hidden;" parent="ez120fp0GcOUs8x1wjCr-31" vertex="1">
          <mxGeometry x="30" width="150" height="30" as="geometry" />
        </mxCell>
        <mxCell id="ez120fp0GcOUs8x1wjCr-34" value="" style="shape=partialRectangle;collapsible=0;dropTarget=0;pointerEvents=0;fillColor=none;top=0;left=0;bottom=0;right=0;points=[[0,0.5],[1,0.5]];portConstraint=eastwest;" parent="ez120fp0GcOUs8x1wjCr-30" vertex="1">
          <mxGeometry y="60" width="180" height="30" as="geometry" />
        </mxCell>
        <mxCell id="ez120fp0GcOUs8x1wjCr-35" value="" style="shape=partialRectangle;connectable=0;fillColor=none;top=0;left=0;bottom=0;right=0;editable=1;overflow=hidden;" parent="ez120fp0GcOUs8x1wjCr-34" vertex="1">
          <mxGeometry width="30" height="30" as="geometry" />
        </mxCell>
        <mxCell id="ez120fp0GcOUs8x1wjCr-36" value="data" style="shape=partialRectangle;connectable=0;fillColor=none;top=0;left=0;bottom=0;right=0;align=left;spacingLeft=6;overflow=hidden;" parent="ez120fp0GcOUs8x1wjCr-34" vertex="1">
          <mxGeometry x="30" width="150" height="30" as="geometry" />
        </mxCell>
        <mxCell id="ez120fp0GcOUs8x1wjCr-37" value="" style="shape=partialRectangle;collapsible=0;dropTarget=0;pointerEvents=0;fillColor=none;top=0;left=0;bottom=0;right=0;points=[[0,0.5],[1,0.5]];portConstraint=eastwest;" parent="ez120fp0GcOUs8x1wjCr-30" vertex="1">
          <mxGeometry y="90" width="180" height="30" as="geometry" />
        </mxCell>
        <mxCell id="ez120fp0GcOUs8x1wjCr-38" value="" style="shape=partialRectangle;connectable=0;fillColor=none;top=0;left=0;bottom=0;right=0;editable=1;overflow=hidden;" parent="ez120fp0GcOUs8x1wjCr-37" vertex="1">
          <mxGeometry width="30" height="30" as="geometry" />
        </mxCell>
        <mxCell id="ez120fp0GcOUs8x1wjCr-39" value="tipo" style="shape=partialRectangle;connectable=0;fillColor=none;top=0;left=0;bottom=0;right=0;align=left;spacingLeft=6;overflow=hidden;" parent="ez120fp0GcOUs8x1wjCr-37" vertex="1">
          <mxGeometry x="30" width="150" height="30" as="geometry" />
        </mxCell>
        <mxCell id="ez120fp0GcOUs8x1wjCr-40" value="" style="shape=partialRectangle;collapsible=0;dropTarget=0;pointerEvents=0;fillColor=none;top=0;left=0;bottom=0;right=0;points=[[0,0.5],[1,0.5]];portConstraint=eastwest;" parent="ez120fp0GcOUs8x1wjCr-30" vertex="1">
          <mxGeometry y="120" width="180" height="30" as="geometry" />
        </mxCell>
        <mxCell id="ez120fp0GcOUs8x1wjCr-41" value="" style="shape=partialRectangle;connectable=0;fillColor=none;top=0;left=0;bottom=0;right=0;editable=1;overflow=hidden;" parent="ez120fp0GcOUs8x1wjCr-40" vertex="1">
          <mxGeometry width="30" height="30" as="geometry" />
        </mxCell>
        <mxCell id="ez120fp0GcOUs8x1wjCr-42" value="Chassi (FK)" style="shape=partialRectangle;connectable=0;fillColor=none;top=0;left=0;bottom=0;right=0;align=left;spacingLeft=6;overflow=hidden;" parent="ez120fp0GcOUs8x1wjCr-40" vertex="1">
          <mxGeometry x="30" width="150" height="30" as="geometry" />
        </mxCell>
        <mxCell id="ez120fp0GcOUs8x1wjCr-43" value="Carro" style="shape=table;startSize=30;container=1;collapsible=1;childLayout=tableLayout;fixedRows=1;rowLines=0;fontStyle=1;align=center;resizeLast=1;" parent="cvbZ9szHHdb0fuQo2xFD-1" vertex="1">
          <mxGeometry x="350" y="900" width="180" height="160" as="geometry" />
        </mxCell>
        <mxCell id="ez120fp0GcOUs8x1wjCr-44" value="" style="shape=partialRectangle;collapsible=0;dropTarget=0;pointerEvents=0;fillColor=none;top=0;left=0;bottom=1;right=0;points=[[0,0.5],[1,0.5]];portConstraint=eastwest;" parent="ez120fp0GcOUs8x1wjCr-43" vertex="1">
          <mxGeometry y="30" width="180" height="30" as="geometry" />
        </mxCell>
        <mxCell id="ez120fp0GcOUs8x1wjCr-45" value="PK" style="shape=partialRectangle;connectable=0;fillColor=none;top=0;left=0;bottom=0;right=0;fontStyle=1;overflow=hidden;" parent="ez120fp0GcOUs8x1wjCr-44" vertex="1">
          <mxGeometry width="30" height="30" as="geometry" />
        </mxCell>
        <mxCell id="ez120fp0GcOUs8x1wjCr-46" value="Chassi" style="shape=partialRectangle;connectable=0;fillColor=none;top=0;left=0;bottom=0;right=0;align=left;spacingLeft=6;fontStyle=5;overflow=hidden;" parent="ez120fp0GcOUs8x1wjCr-44" vertex="1">
          <mxGeometry x="30" width="150" height="30" as="geometry" />
        </mxCell>
        <mxCell id="ez120fp0GcOUs8x1wjCr-47" value="" style="shape=partialRectangle;collapsible=0;dropTarget=0;pointerEvents=0;fillColor=none;top=0;left=0;bottom=0;right=0;points=[[0,0.5],[1,0.5]];portConstraint=eastwest;" parent="ez120fp0GcOUs8x1wjCr-43" vertex="1">
          <mxGeometry y="60" width="180" height="30" as="geometry" />
        </mxCell>
        <mxCell id="ez120fp0GcOUs8x1wjCr-48" value="" style="shape=partialRectangle;connectable=0;fillColor=none;top=0;left=0;bottom=0;right=0;editable=1;overflow=hidden;" parent="ez120fp0GcOUs8x1wjCr-47" vertex="1">
          <mxGeometry width="30" height="30" as="geometry" />
        </mxCell>
        <mxCell id="ez120fp0GcOUs8x1wjCr-49" value="cor" style="shape=partialRectangle;connectable=0;fillColor=none;top=0;left=0;bottom=0;right=0;align=left;spacingLeft=6;overflow=hidden;" parent="ez120fp0GcOUs8x1wjCr-47" vertex="1">
          <mxGeometry x="30" width="150" height="30" as="geometry" />
        </mxCell>
        <mxCell id="ez120fp0GcOUs8x1wjCr-50" value="" style="shape=partialRectangle;collapsible=0;dropTarget=0;pointerEvents=0;fillColor=none;top=0;left=0;bottom=0;right=0;points=[[0,0.5],[1,0.5]];portConstraint=eastwest;" parent="ez120fp0GcOUs8x1wjCr-43" vertex="1">
          <mxGeometry y="90" width="180" height="30" as="geometry" />
        </mxCell>
        <mxCell id="ez120fp0GcOUs8x1wjCr-51" value="" style="shape=partialRectangle;connectable=0;fillColor=none;top=0;left=0;bottom=0;right=0;editable=1;overflow=hidden;" parent="ez120fp0GcOUs8x1wjCr-50" vertex="1">
          <mxGeometry width="30" height="30" as="geometry" />
        </mxCell>
        <mxCell id="ez120fp0GcOUs8x1wjCr-52" value="marca" style="shape=partialRectangle;connectable=0;fillColor=none;top=0;left=0;bottom=0;right=0;align=left;spacingLeft=6;overflow=hidden;" parent="ez120fp0GcOUs8x1wjCr-50" vertex="1">
          <mxGeometry x="30" width="150" height="30" as="geometry" />
        </mxCell>
        <mxCell id="ez120fp0GcOUs8x1wjCr-53" value="" style="shape=partialRectangle;collapsible=0;dropTarget=0;pointerEvents=0;fillColor=none;top=0;left=0;bottom=0;right=0;points=[[0,0.5],[1,0.5]];portConstraint=eastwest;" parent="ez120fp0GcOUs8x1wjCr-43" vertex="1">
          <mxGeometry y="120" width="180" height="30" as="geometry" />
        </mxCell>
        <mxCell id="ez120fp0GcOUs8x1wjCr-54" value="" style="shape=partialRectangle;connectable=0;fillColor=none;top=0;left=0;bottom=0;right=0;editable=1;overflow=hidden;" parent="ez120fp0GcOUs8x1wjCr-53" vertex="1">
          <mxGeometry width="30" height="30" as="geometry" />
        </mxCell>
        <mxCell id="ez120fp0GcOUs8x1wjCr-55" value="Proprietario" style="shape=partialRectangle;connectable=0;fillColor=none;top=0;left=0;bottom=0;right=0;align=left;spacingLeft=6;overflow=hidden;" parent="ez120fp0GcOUs8x1wjCr-53" vertex="1">
          <mxGeometry x="30" width="150" height="30" as="geometry" />
        </mxCell>
        <mxCell id="ez120fp0GcOUs8x1wjCr-56" value="" style="edgeStyle=entityRelationEdgeStyle;fontSize=12;html=1;endArrow=ERoneToMany;startArrow=ERzeroToOne;" parent="cvbZ9szHHdb0fuQo2xFD-1" edge="1">
          <mxGeometry width="100" height="100" relative="1" as="geometry">
            <mxPoint x="250" y="1040" as="sourcePoint" />
            <mxPoint x="350" y="940" as="targetPoint" />
          </mxGeometry>
        </mxCell>
      </root>
    </mxGraphModel>
  </diagram>
  <diagram id="R2lEEEUBdFMjLlhIrx00" name="DER-Passagem">
    <mxGraphModel dx="1342" dy="626" grid="1" gridSize="10" guides="1" tooltips="1" connect="1" arrows="1" fold="1" page="1" pageScale="1" pageWidth="850" pageHeight="1100" math="0" shadow="0" extFonts="Permanent Marker^https://fonts.googleapis.com/css?family=Permanent+Marker">
      <root>
        <mxCell id="0" />
        <mxCell id="1" parent="0" />
        <mxCell id="HuDDTOR3FafQliw_54F0-1" value="Passareiro" style="rounded=0;whiteSpace=wrap;html=1;" parent="1" vertex="1">
          <mxGeometry x="190" y="260" width="120" height="60" as="geometry" />
        </mxCell>
        <mxCell id="HuDDTOR3FafQliw_54F0-2" value="Funcionário" style="rounded=0;whiteSpace=wrap;html=1;" parent="1" vertex="1">
          <mxGeometry x="480" y="260" width="120" height="60" as="geometry" />
        </mxCell>
        <mxCell id="HuDDTOR3FafQliw_54F0-3" value="Passagem" style="rounded=0;whiteSpace=wrap;html=1;" parent="1" vertex="1">
          <mxGeometry x="190" y="500" width="120" height="60" as="geometry" />
        </mxCell>
        <mxCell id="HuDDTOR3FafQliw_54F0-4" value="Avião" style="rounded=0;whiteSpace=wrap;html=1;" parent="1" vertex="1">
          <mxGeometry x="580" y="510" width="120" height="60" as="geometry" />
        </mxCell>
        <mxCell id="HuDDTOR3FafQliw_54F0-5" value="Compra de uma passagem" style="text;whiteSpace=wrap;html=1;" parent="1" vertex="1">
          <mxGeometry x="200" y="220" width="170" height="30" as="geometry" />
        </mxCell>
        <mxCell id="HuDDTOR3FafQliw_54F0-8" value="&lt;font style=&quot;font-size: 24px&quot;&gt;Diagrama Entidade-Relacionamento - DER&lt;/font&gt;" style="text;html=1;strokeColor=none;fillColor=none;align=center;verticalAlign=middle;whiteSpace=wrap;rounded=0;" parent="1" vertex="1">
          <mxGeometry x="100" y="190" width="600" height="20" as="geometry" />
        </mxCell>
        <mxCell id="HuDDTOR3FafQliw_54F0-9" value="Compra" style="rhombus;whiteSpace=wrap;html=1;" parent="1" vertex="1">
          <mxGeometry x="210" y="370" width="80" height="80" as="geometry" />
        </mxCell>
        <mxCell id="HuDDTOR3FafQliw_54F0-13" value="" style="endArrow=none;html=1;rounded=0;entryX=0.5;entryY=0;entryDx=0;entryDy=0;" parent="1" target="HuDDTOR3FafQliw_54F0-9" edge="1">
          <mxGeometry relative="1" as="geometry">
            <mxPoint x="249.71" y="320" as="sourcePoint" />
            <mxPoint x="249.71" y="420" as="targetPoint" />
          </mxGeometry>
        </mxCell>
        <mxCell id="HuDDTOR3FafQliw_54F0-14" value="1" style="resizable=0;html=1;align=left;verticalAlign=bottom;" parent="HuDDTOR3FafQliw_54F0-13" connectable="0" vertex="1">
          <mxGeometry x="-1" relative="1" as="geometry" />
        </mxCell>
        <mxCell id="HuDDTOR3FafQliw_54F0-15" value="N" style="resizable=0;html=1;align=right;verticalAlign=bottom;" parent="HuDDTOR3FafQliw_54F0-13" connectable="0" vertex="1">
          <mxGeometry x="1" relative="1" as="geometry" />
        </mxCell>
        <mxCell id="HuDDTOR3FafQliw_54F0-16" value="" style="endArrow=none;html=1;rounded=0;entryX=0.5;entryY=0;entryDx=0;entryDy=0;" parent="1" edge="1">
          <mxGeometry relative="1" as="geometry">
            <mxPoint x="249.71" y="450" as="sourcePoint" />
            <mxPoint x="249.99999999999997" y="500" as="targetPoint" />
          </mxGeometry>
        </mxCell>
        <mxCell id="HuDDTOR3FafQliw_54F0-17" value="1" style="resizable=0;html=1;align=left;verticalAlign=bottom;" parent="HuDDTOR3FafQliw_54F0-16" connectable="0" vertex="1">
          <mxGeometry x="-1" relative="1" as="geometry" />
        </mxCell>
        <mxCell id="HuDDTOR3FafQliw_54F0-18" value="N" style="resizable=0;html=1;align=right;verticalAlign=bottom;" parent="HuDDTOR3FafQliw_54F0-16" connectable="0" vertex="1">
          <mxGeometry x="1" relative="1" as="geometry" />
        </mxCell>
        <mxCell id="HuDDTOR3FafQliw_54F0-20" value="Vende" style="rhombus;whiteSpace=wrap;html=1;" parent="1" vertex="1">
          <mxGeometry x="350" y="350" width="80" height="80" as="geometry" />
        </mxCell>
        <mxCell id="HuDDTOR3FafQliw_54F0-21" value="" style="endArrow=none;html=1;rounded=0;entryX=0.5;entryY=0;entryDx=0;entryDy=0;exitX=0;exitY=0.5;exitDx=0;exitDy=0;" parent="1" source="HuDDTOR3FafQliw_54F0-2" edge="1">
          <mxGeometry relative="1" as="geometry">
            <mxPoint x="476" y="292" as="sourcePoint" />
            <mxPoint x="389.99999999999994" y="350" as="targetPoint" />
          </mxGeometry>
        </mxCell>
        <mxCell id="HuDDTOR3FafQliw_54F0-22" value="1" style="resizable=0;html=1;align=left;verticalAlign=bottom;" parent="HuDDTOR3FafQliw_54F0-21" connectable="0" vertex="1">
          <mxGeometry x="-1" relative="1" as="geometry" />
        </mxCell>
        <mxCell id="HuDDTOR3FafQliw_54F0-23" value="N" style="resizable=0;html=1;align=right;verticalAlign=bottom;" parent="HuDDTOR3FafQliw_54F0-21" connectable="0" vertex="1">
          <mxGeometry x="1" relative="1" as="geometry" />
        </mxCell>
        <mxCell id="HuDDTOR3FafQliw_54F0-24" value="" style="endArrow=none;html=1;rounded=0;entryX=1;entryY=0.5;entryDx=0;entryDy=0;exitX=0;exitY=0.5;exitDx=0;exitDy=0;" parent="1" target="HuDDTOR3FafQliw_54F0-3" edge="1">
          <mxGeometry relative="1" as="geometry">
            <mxPoint x="390" y="430" as="sourcePoint" />
            <mxPoint x="300" y="490" as="targetPoint" />
          </mxGeometry>
        </mxCell>
        <mxCell id="HuDDTOR3FafQliw_54F0-25" value="1" style="resizable=0;html=1;align=left;verticalAlign=bottom;" parent="HuDDTOR3FafQliw_54F0-24" connectable="0" vertex="1">
          <mxGeometry x="-1" relative="1" as="geometry" />
        </mxCell>
        <mxCell id="HuDDTOR3FafQliw_54F0-26" value="N" style="resizable=0;html=1;align=right;verticalAlign=bottom;" parent="HuDDTOR3FafQliw_54F0-24" connectable="0" vertex="1">
          <mxGeometry x="1" relative="1" as="geometry" />
        </mxCell>
        <mxCell id="HuDDTOR3FafQliw_54F0-27" value="Alocada" style="rhombus;whiteSpace=wrap;html=1;" parent="1" vertex="1">
          <mxGeometry x="400" y="500" width="80" height="80" as="geometry" />
        </mxCell>
        <mxCell id="HuDDTOR3FafQliw_54F0-29" value="" style="endArrow=none;html=1;rounded=0;" parent="1" edge="1">
          <mxGeometry relative="1" as="geometry">
            <mxPoint x="310" y="540" as="sourcePoint" />
            <mxPoint x="400" y="540" as="targetPoint" />
          </mxGeometry>
        </mxCell>
        <mxCell id="HuDDTOR3FafQliw_54F0-30" value="1" style="resizable=0;html=1;align=left;verticalAlign=bottom;" parent="HuDDTOR3FafQliw_54F0-29" connectable="0" vertex="1">
          <mxGeometry x="-1" relative="1" as="geometry" />
        </mxCell>
        <mxCell id="HuDDTOR3FafQliw_54F0-31" value="N" style="resizable=0;html=1;align=right;verticalAlign=bottom;" parent="HuDDTOR3FafQliw_54F0-29" connectable="0" vertex="1">
          <mxGeometry x="1" relative="1" as="geometry" />
        </mxCell>
        <mxCell id="HuDDTOR3FafQliw_54F0-35" value="" style="endArrow=none;html=1;rounded=0;" parent="1" edge="1">
          <mxGeometry relative="1" as="geometry">
            <mxPoint x="480" y="540" as="sourcePoint" />
            <mxPoint x="580" y="540" as="targetPoint" />
          </mxGeometry>
        </mxCell>
        <mxCell id="HuDDTOR3FafQliw_54F0-36" value="1" style="resizable=0;html=1;align=left;verticalAlign=bottom;" parent="HuDDTOR3FafQliw_54F0-35" connectable="0" vertex="1">
          <mxGeometry x="-1" relative="1" as="geometry" />
        </mxCell>
        <mxCell id="HuDDTOR3FafQliw_54F0-37" value="1" style="resizable=0;html=1;align=right;verticalAlign=bottom;" parent="HuDDTOR3FafQliw_54F0-35" connectable="0" vertex="1">
          <mxGeometry x="1" relative="1" as="geometry" />
        </mxCell>
        <object label="" id="Ba41q2-DmTPO04iVp4IE-1">
          <mxCell style="rounded=0;whiteSpace=wrap;html=1;" parent="1" vertex="1">
            <mxGeometry x="190" y="50" width="120" height="60" as="geometry" />
          </mxCell>
        </object>
        <mxCell id="Ba41q2-DmTPO04iVp4IE-2" value="" style="rounded=0;whiteSpace=wrap;html=1;" parent="1" vertex="1">
          <mxGeometry x="500" y="60" width="120" height="60" as="geometry" />
        </mxCell>
        <mxCell id="Ba41q2-DmTPO04iVp4IE-3" value="Cliente" style="text;html=1;strokeColor=none;fillColor=none;align=center;verticalAlign=middle;whiteSpace=wrap;rounded=0;" parent="1" vertex="1">
          <mxGeometry x="220" y="70" width="40" height="20" as="geometry" />
        </mxCell>
      </root>
    </mxGraphModel>
  </diagram>
  <diagram id="fJNkP3QMyyHQbDy3iw0G" name="Netflix-Filmes">
    <mxGraphModel dx="1342" dy="626" grid="1" gridSize="10" guides="1" tooltips="1" connect="1" arrows="1" fold="1" page="1" pageScale="1" pageWidth="850" pageHeight="1100" math="0" shadow="0">
      <root>
        <mxCell id="KskYPWQuJFEGFUKrassD-0" />
        <mxCell id="KskYPWQuJFEGFUKrassD-1" parent="KskYPWQuJFEGFUKrassD-0" />
        <mxCell id="KskYPWQuJFEGFUKrassD-3" value="Filmes" style="rounded=0;whiteSpace=wrap;html=1;" parent="KskYPWQuJFEGFUKrassD-1" vertex="1">
          <mxGeometry x="480" y="80" width="120" height="60" as="geometry" />
        </mxCell>
        <mxCell id="KskYPWQuJFEGFUKrassD-4" value="Netflix" style="rounded=0;whiteSpace=wrap;html=1;" parent="KskYPWQuJFEGFUKrassD-1" vertex="1">
          <mxGeometry x="100" y="80" width="120" height="60" as="geometry" />
        </mxCell>
        <mxCell id="tmE608Ey60_b0rDm23FV-0" value="Possui" style="rhombus;whiteSpace=wrap;html=1;" parent="KskYPWQuJFEGFUKrassD-1" vertex="1">
          <mxGeometry x="310" y="70" width="80" height="80" as="geometry" />
        </mxCell>
        <mxCell id="tmE608Ey60_b0rDm23FV-2" value="" style="endArrow=none;html=1;exitX=1;exitY=0.5;exitDx=0;exitDy=0;entryX=0;entryY=0.5;entryDx=0;entryDy=0;" parent="KskYPWQuJFEGFUKrassD-1" source="KskYPWQuJFEGFUKrassD-4" target="tmE608Ey60_b0rDm23FV-0" edge="1">
          <mxGeometry width="50" height="50" relative="1" as="geometry">
            <mxPoint x="260" y="200" as="sourcePoint" />
            <mxPoint x="310" y="150" as="targetPoint" />
          </mxGeometry>
        </mxCell>
        <mxCell id="tmE608Ey60_b0rDm23FV-3" value="" style="endArrow=none;html=1;entryX=0;entryY=0.5;entryDx=0;entryDy=0;exitX=1;exitY=0.5;exitDx=0;exitDy=0;" parent="KskYPWQuJFEGFUKrassD-1" source="tmE608Ey60_b0rDm23FV-0" target="KskYPWQuJFEGFUKrassD-3" edge="1">
          <mxGeometry width="50" height="50" relative="1" as="geometry">
            <mxPoint x="400" y="110" as="sourcePoint" />
            <mxPoint x="460" y="100" as="targetPoint" />
          </mxGeometry>
        </mxCell>
        <mxCell id="tmE608Ey60_b0rDm23FV-5" value="1,1" style="text;html=1;strokeColor=none;fillColor=none;align=center;verticalAlign=middle;whiteSpace=wrap;rounded=0;" parent="KskYPWQuJFEGFUKrassD-1" vertex="1">
          <mxGeometry x="240" y="90" width="40" height="20" as="geometry" />
        </mxCell>
        <mxCell id="tmE608Ey60_b0rDm23FV-6" value="1,N" style="text;html=1;strokeColor=none;fillColor=none;align=center;verticalAlign=middle;whiteSpace=wrap;rounded=0;" parent="KskYPWQuJFEGFUKrassD-1" vertex="1">
          <mxGeometry x="425" y="80" width="40" height="20" as="geometry" />
        </mxCell>
        <mxCell id="tmE608Ey60_b0rDm23FV-7" value="É-um" style="triangle;whiteSpace=wrap;html=1;rotation=-90;" parent="KskYPWQuJFEGFUKrassD-1" vertex="1">
          <mxGeometry x="510" y="130" width="60" height="80" as="geometry" />
        </mxCell>
        <mxCell id="tmE608Ey60_b0rDm23FV-8" value="Ficção" style="rounded=0;whiteSpace=wrap;html=1;" parent="KskYPWQuJFEGFUKrassD-1" vertex="1">
          <mxGeometry x="180" y="260" width="120" height="60" as="geometry" />
        </mxCell>
        <mxCell id="tmE608Ey60_b0rDm23FV-10" value="Terror" style="rounded=0;whiteSpace=wrap;html=1;" parent="KskYPWQuJFEGFUKrassD-1" vertex="1">
          <mxGeometry x="345" y="260" width="120" height="60" as="geometry" />
        </mxCell>
        <mxCell id="tmE608Ey60_b0rDm23FV-11" value="Aventura" style="rounded=0;whiteSpace=wrap;html=1;" parent="KskYPWQuJFEGFUKrassD-1" vertex="1">
          <mxGeometry x="510" y="260" width="120" height="60" as="geometry" />
        </mxCell>
        <mxCell id="tmE608Ey60_b0rDm23FV-12" value="Humor" style="rounded=0;whiteSpace=wrap;html=1;" parent="KskYPWQuJFEGFUKrassD-1" vertex="1">
          <mxGeometry x="680" y="260" width="120" height="60" as="geometry" />
        </mxCell>
        <mxCell id="tmE608Ey60_b0rDm23FV-13" value="Documentário" style="rounded=0;whiteSpace=wrap;html=1;" parent="KskYPWQuJFEGFUKrassD-1" vertex="1">
          <mxGeometry x="30" y="260" width="120" height="60" as="geometry" />
        </mxCell>
        <mxCell id="tmE608Ey60_b0rDm23FV-16" value="" style="endArrow=none;html=1;rounded=0;" parent="KskYPWQuJFEGFUKrassD-1" edge="1">
          <mxGeometry relative="1" as="geometry">
            <mxPoint x="80" y="230" as="sourcePoint" />
            <mxPoint x="800" y="230" as="targetPoint" />
          </mxGeometry>
        </mxCell>
        <mxCell id="tmE608Ey60_b0rDm23FV-18" value="" style="shape=partialRectangle;fillColor=none;align=left;verticalAlign=middle;strokeColor=none;spacingLeft=34;rotatable=0;points=[[0,0.5],[1,0.5]];portConstraint=eastwest;dropTarget=0;" parent="KskYPWQuJFEGFUKrassD-1" vertex="1">
          <mxGeometry x="50" y="230" width="90" height="30" as="geometry" />
        </mxCell>
        <mxCell id="tmE608Ey60_b0rDm23FV-19" value="" style="shape=partialRectangle;top=0;left=0;bottom=0;fillColor=none;stokeWidth=1;dashed=1;align=left;verticalAlign=middle;spacingLeft=4;spacingRight=4;overflow=hidden;rotatable=0;points=[];portConstraint=eastwest;part=1;" parent="tmE608Ey60_b0rDm23FV-18" vertex="1" connectable="0">
          <mxGeometry width="30" height="30" as="geometry" />
        </mxCell>
        <mxCell id="tmE608Ey60_b0rDm23FV-20" value="" style="shape=partialRectangle;fillColor=none;align=left;verticalAlign=middle;strokeColor=none;spacingLeft=34;rotatable=0;points=[[0,0.5],[1,0.5]];portConstraint=eastwest;dropTarget=0;" parent="KskYPWQuJFEGFUKrassD-1" vertex="1">
          <mxGeometry x="195" y="230" width="90" height="30" as="geometry" />
        </mxCell>
        <mxCell id="tmE608Ey60_b0rDm23FV-21" value="" style="shape=partialRectangle;top=0;left=0;bottom=0;fillColor=none;stokeWidth=1;dashed=1;align=left;verticalAlign=middle;spacingLeft=4;spacingRight=4;overflow=hidden;rotatable=0;points=[];portConstraint=eastwest;part=1;" parent="tmE608Ey60_b0rDm23FV-20" vertex="1" connectable="0">
          <mxGeometry width="30" height="30" as="geometry" />
        </mxCell>
        <mxCell id="tmE608Ey60_b0rDm23FV-27" value="" style="shape=partialRectangle;fillColor=none;align=left;verticalAlign=middle;strokeColor=none;spacingLeft=34;rotatable=0;points=[[0,0.5],[1,0.5]];portConstraint=eastwest;dropTarget=0;" parent="KskYPWQuJFEGFUKrassD-1" vertex="1">
          <mxGeometry x="375" y="230" width="90" height="30" as="geometry" />
        </mxCell>
        <mxCell id="tmE608Ey60_b0rDm23FV-28" value="" style="shape=partialRectangle;top=0;left=0;bottom=0;fillColor=none;stokeWidth=1;dashed=1;align=left;verticalAlign=middle;spacingLeft=4;spacingRight=4;overflow=hidden;rotatable=0;points=[];portConstraint=eastwest;part=1;" parent="tmE608Ey60_b0rDm23FV-27" vertex="1" connectable="0">
          <mxGeometry width="30" height="30" as="geometry" />
        </mxCell>
        <mxCell id="tmE608Ey60_b0rDm23FV-29" value="" style="shape=partialRectangle;fillColor=none;align=left;verticalAlign=middle;strokeColor=none;spacingLeft=34;rotatable=0;points=[[0,0.5],[1,0.5]];portConstraint=eastwest;dropTarget=0;" parent="KskYPWQuJFEGFUKrassD-1" vertex="1">
          <mxGeometry x="530" y="230" width="90" height="30" as="geometry" />
        </mxCell>
        <mxCell id="tmE608Ey60_b0rDm23FV-30" value="" style="shape=partialRectangle;top=0;left=0;bottom=0;fillColor=none;stokeWidth=1;dashed=1;align=left;verticalAlign=middle;spacingLeft=4;spacingRight=4;overflow=hidden;rotatable=0;points=[];portConstraint=eastwest;part=1;" parent="tmE608Ey60_b0rDm23FV-29" vertex="1" connectable="0">
          <mxGeometry width="30" height="30" as="geometry" />
        </mxCell>
        <mxCell id="tmE608Ey60_b0rDm23FV-43" value="" style="shape=partialRectangle;fillColor=none;align=left;verticalAlign=middle;strokeColor=none;spacingLeft=34;rotatable=0;points=[[0,0.5],[1,0.5]];portConstraint=eastwest;dropTarget=0;" parent="KskYPWQuJFEGFUKrassD-1" vertex="1">
          <mxGeometry x="720" y="230" width="90" height="30" as="geometry" />
        </mxCell>
        <mxCell id="tmE608Ey60_b0rDm23FV-44" value="" style="shape=partialRectangle;top=0;left=0;bottom=0;fillColor=none;stokeWidth=1;dashed=1;align=left;verticalAlign=middle;spacingLeft=4;spacingRight=4;overflow=hidden;rotatable=0;points=[];portConstraint=eastwest;part=1;" parent="tmE608Ey60_b0rDm23FV-43" vertex="1" connectable="0">
          <mxGeometry width="30" height="30" as="geometry" />
        </mxCell>
        <mxCell id="tmE608Ey60_b0rDm23FV-45" value="" style="shape=partialRectangle;fillColor=none;align=left;verticalAlign=middle;strokeColor=none;spacingLeft=34;rotatable=0;points=[[0,0.5],[1,0.5]];portConstraint=eastwest;dropTarget=0;" parent="KskYPWQuJFEGFUKrassD-1" vertex="1">
          <mxGeometry x="530" y="200" width="90" height="30" as="geometry" />
        </mxCell>
        <mxCell id="tmE608Ey60_b0rDm23FV-46" value="" style="shape=partialRectangle;top=0;left=0;bottom=0;fillColor=none;stokeWidth=1;dashed=1;align=left;verticalAlign=middle;spacingLeft=4;spacingRight=4;overflow=hidden;rotatable=0;points=[];portConstraint=eastwest;part=1;" parent="tmE608Ey60_b0rDm23FV-45" vertex="1" connectable="0">
          <mxGeometry width="30" height="30" as="geometry" />
        </mxCell>
      </root>
    </mxGraphModel>
  </diagram>
  <diagram id="LKhdzq5lHThjpKrQk-_D" name="Covid-19">
    <mxGraphModel dx="767" dy="358" grid="1" gridSize="10" guides="1" tooltips="1" connect="1" arrows="1" fold="1" page="1" pageScale="1" pageWidth="850" pageHeight="1100" math="0" shadow="0">
      <root>
        <mxCell id="K2Qh0jLs8B2qXqH7L96B-0" />
        <mxCell id="K2Qh0jLs8B2qXqH7L96B-1" parent="K2Qh0jLs8B2qXqH7L96B-0" />
        <mxCell id="K2Qh0jLs8B2qXqH7L96B-2" value="Projeto: Modelar UTI Covid-19 (MER)&lt;br/&gt;&lt;br&gt;&lt;br/&gt;&lt;br&gt;Um &lt;u&gt;Hospital&lt;/u&gt; possui vários &lt;u&gt;Leitos&lt;/u&gt;, uma boa parte dele são &lt;u&gt;leitos de UTI&lt;/u&gt;. Destes Leitos, temos os &lt;u&gt;Leitos para Covid-19&lt;/u&gt;.&lt;br/&gt;&lt;br&gt;&lt;br/&gt;&lt;br&gt;Cada Leito de Covid-19 possui uma equipe especializada com: Médicos, Enfermeiras, Técnicos de Enfermagem e Técnicos de Laboratório, Pessoal de Limpeza, etc.&lt;br/&gt;&lt;br&gt;&lt;br/&gt;&lt;br&gt;Os pacientes que chegam são registrados os seguintes dados: Idade, Sexo, Compromentimento do Pulmão, Cidade de Origem, Peso, Altura, e se tem alguma comorbidade (hipertensão, diabetes, obesidade, asma)." style="text;whiteSpace=wrap;html=1;" vertex="1" parent="K2Qh0jLs8B2qXqH7L96B-1">
          <mxGeometry x="40" y="20" width="770" height="180" as="geometry" />
        </mxCell>
        <mxCell id="lrc35lCEU0TL98AKLPv0-0" value="Hospital" style="whiteSpace=wrap;html=1;align=center;" vertex="1" parent="K2Qh0jLs8B2qXqH7L96B-1">
          <mxGeometry x="80" y="280" width="100" height="40" as="geometry" />
        </mxCell>
        <mxCell id="lrc35lCEU0TL98AKLPv0-1" value="Leitos" style="whiteSpace=wrap;html=1;align=center;" vertex="1" parent="K2Qh0jLs8B2qXqH7L96B-1">
          <mxGeometry x="480" y="280" width="100" height="40" as="geometry" />
        </mxCell>
        <mxCell id="lrc35lCEU0TL98AKLPv0-2" value="Possui" style="shape=rhombus;double=1;perimeter=rhombusPerimeter;whiteSpace=wrap;html=1;align=center;" vertex="1" parent="K2Qh0jLs8B2qXqH7L96B-1">
          <mxGeometry x="250" y="270" width="120" height="60" as="geometry" />
        </mxCell>
        <mxCell id="lrc35lCEU0TL98AKLPv0-3" value="" style="endArrow=none;html=1;rounded=0;" edge="1" parent="K2Qh0jLs8B2qXqH7L96B-1">
          <mxGeometry relative="1" as="geometry">
            <mxPoint x="180" y="300" as="sourcePoint" />
            <mxPoint x="250" y="300" as="targetPoint" />
          </mxGeometry>
        </mxCell>
        <mxCell id="lrc35lCEU0TL98AKLPv0-4" value="" style="endArrow=none;html=1;rounded=0;" edge="1" parent="K2Qh0jLs8B2qXqH7L96B-1">
          <mxGeometry relative="1" as="geometry">
            <mxPoint x="370" y="300" as="sourcePoint" />
            <mxPoint x="480" y="300" as="targetPoint" />
          </mxGeometry>
        </mxCell>
        <mxCell id="lrc35lCEU0TL98AKLPv0-5" value="(1,1)" style="text;strokeColor=none;fillColor=none;spacingLeft=4;spacingRight=4;overflow=hidden;rotatable=0;points=[[0,0.5],[1,0.5]];portConstraint=eastwest;fontSize=12;" vertex="1" parent="K2Qh0jLs8B2qXqH7L96B-1">
          <mxGeometry x="190" y="270" width="40" height="30" as="geometry" />
        </mxCell>
        <mxCell id="lrc35lCEU0TL98AKLPv0-6" value="(1,N)" style="text;strokeColor=none;fillColor=none;spacingLeft=4;spacingRight=4;overflow=hidden;rotatable=0;points=[[0,0.5],[1,0.5]];portConstraint=eastwest;fontSize=12;" vertex="1" parent="K2Qh0jLs8B2qXqH7L96B-1">
          <mxGeometry x="440" y="270" width="40" height="30" as="geometry" />
        </mxCell>
        <mxCell id="lrc35lCEU0TL98AKLPv0-9" value="É-UM" style="triangle;whiteSpace=wrap;html=1;rotation=-90;" vertex="1" parent="K2Qh0jLs8B2qXqH7L96B-1">
          <mxGeometry x="502.5" y="310" width="55" height="70" as="geometry" />
        </mxCell>
        <mxCell id="lrc35lCEU0TL98AKLPv0-10" value="COVID" style="whiteSpace=wrap;html=1;align=center;" vertex="1" parent="K2Qh0jLs8B2qXqH7L96B-1">
          <mxGeometry x="410" y="420" width="100" height="40" as="geometry" />
        </mxCell>
        <mxCell id="lrc35lCEU0TL98AKLPv0-11" value="UTI" style="whiteSpace=wrap;html=1;align=center;" vertex="1" parent="K2Qh0jLs8B2qXqH7L96B-1">
          <mxGeometry x="557.5" y="420" width="100" height="40" as="geometry" />
        </mxCell>
        <mxCell id="lrc35lCEU0TL98AKLPv0-13" value="" style="endArrow=none;html=1;rounded=0;" edge="1" parent="K2Qh0jLs8B2qXqH7L96B-1">
          <mxGeometry relative="1" as="geometry">
            <mxPoint x="480" y="390" as="sourcePoint" />
            <mxPoint x="600" y="390" as="targetPoint" />
          </mxGeometry>
        </mxCell>
        <mxCell id="lrc35lCEU0TL98AKLPv0-16" value="" style="endArrow=none;html=1;exitX=0.704;exitY=-0.036;exitDx=0;exitDy=0;exitPerimeter=0;" edge="1" parent="K2Qh0jLs8B2qXqH7L96B-1" source="lrc35lCEU0TL98AKLPv0-10">
          <mxGeometry width="50" height="50" relative="1" as="geometry">
            <mxPoint x="450" y="420" as="sourcePoint" />
            <mxPoint x="480" y="390" as="targetPoint" />
          </mxGeometry>
        </mxCell>
        <mxCell id="lrc35lCEU0TL98AKLPv0-18" value="" style="endArrow=none;html=1;exitX=0.406;exitY=-0.036;exitDx=0;exitDy=0;exitPerimeter=0;" edge="1" parent="K2Qh0jLs8B2qXqH7L96B-1" source="lrc35lCEU0TL98AKLPv0-11">
          <mxGeometry width="50" height="50" relative="1" as="geometry">
            <mxPoint x="530" y="410" as="sourcePoint" />
            <mxPoint x="598" y="390" as="targetPoint" />
          </mxGeometry>
        </mxCell>
        <mxCell id="lrc35lCEU0TL98AKLPv0-19" value="" style="endArrow=none;html=1;entryX=0;entryY=0.5;entryDx=0;entryDy=0;" edge="1" parent="K2Qh0jLs8B2qXqH7L96B-1" target="lrc35lCEU0TL98AKLPv0-9">
          <mxGeometry width="50" height="50" relative="1" as="geometry">
            <mxPoint x="530" y="390" as="sourcePoint" />
            <mxPoint x="549.6000000000001" y="351.43999999999994" as="targetPoint" />
          </mxGeometry>
        </mxCell>
        <mxCell id="lrc35lCEU0TL98AKLPv0-20" value="Relationship" style="shape=rhombus;double=1;perimeter=rhombusPerimeter;whiteSpace=wrap;html=1;align=center;" vertex="1" parent="K2Qh0jLs8B2qXqH7L96B-1">
          <mxGeometry x="400" y="490" width="120" height="60" as="geometry" />
        </mxCell>
        <mxCell id="lrc35lCEU0TL98AKLPv0-21" value="COVID" style="whiteSpace=wrap;html=1;align=center;" vertex="1" parent="K2Qh0jLs8B2qXqH7L96B-1">
          <mxGeometry x="430" y="610" width="100" height="40" as="geometry" />
        </mxCell>
      </root>
    </mxGraphModel>
  </diagram>
</mxfile>
